<?xml version="1.0" standalone="no"?>
<!DOCTYPE svg PUBLIC "-//W3C//DTD SVG 20010904//EN"
 "http://www.w3.org/TR/2001/REC-SVG-20010904/DTD/svg10.dtd">
<svg version="1.0" xmlns="http://www.w3.org/2000/svg"
 width="16.000000pt" height="16.000000pt" viewBox="0 0 16.000000 16.000000"
 preserveAspectRatio="xMidYMid meet">
<metadata>
Created by potrace 1.11, written by Peter Selinger 2001-2013
</metadata>
<g transform="translate(0.000000,16.000000) scale(0.008889,-0.008889)"
fill="#000000" stroke="none">
<path d="M705 1780 c-62 -12 -118 -37 -240 -105 -102 -57 -234 -179 -278 -257
-14 -23 -41 -70 -61 -102 -20 -33 -39 -75 -42 -95 -4 -20 -14 -54 -22 -76 -8
-22 -16 -76 -17 -120 -2 -44 -6 -87 -10 -96 -15 -38 7 -225 37 -319 12 -36 22
-77 23 -92 2 -24 38 -95 55 -108 4 -3 11 -12 16 -21 5 -10 39 -48 75 -87 72
-77 202 -164 289 -195 30 -10 74 -27 97 -38 23 -10 53 -19 67 -19 14 0 47 -7
73 -16 57 -20 171 -15 251 10 21 7 140 23 180 25 7 1 23 11 36 23 13 13 62 43
110 68 47 25 86 48 86 52 0 4 8 9 18 12 22 8 117 98 162 156 40 51 51 72 76
150 9 30 23 73 30 95 7 22 15 56 18 75 2 19 9 51 15 70 23 72 31 205 19 290
-17 111 -27 152 -44 177 -8 12 -21 42 -29 65 -35 103 -94 193 -185 286 -93 95
-138 123 -225 136 -21 4 -43 10 -49 15 -6 5 -28 11 -49 14 -20 3 -44 11 -53
18 -18 15 -361 22 -429 9z m393 -125 c15 -9 70 -30 123 -48 89 -30 139 -59
193 -113 12 -11 40 -35 63 -53 23 -17 45 -41 48 -52 4 -11 23 -48 42 -82 37
-66 63 -140 70 -197 5 -52 4 -292 -2 -317 -3 -13 -7 -33 -10 -45 -10 -44 -39
-125 -62 -171 -13 -26 -20 -47 -16 -47 5 0 3 -4 -3 -8 -6 -4 -24 -27 -39 -52
-29 -47 -130 -150 -146 -150 -6 0 -20 -9 -32 -21 -26 -24 -141 -79 -166 -79
-9 0 -21 -4 -27 -9 -5 -4 -44 -20 -86 -35 -82 -29 -100 -26 -127 16 -11 17 -9
19 27 14 21 -2 55 -8 74 -11 21 -4 38 -3 42 3 8 13 -2 19 -35 26 -13 2 -32 7
-42 11 -17 7 -17 9 2 26 18 17 22 18 63 3 52 -19 128 -28 128 -15 0 10 -24 21
-47 21 -9 0 -42 10 -74 21 -67 25 -69 32 -47 130 9 40 22 62 53 91 22 21 59
57 82 79 26 26 48 39 57 36 19 -8 36 21 36 62 0 16 4 32 9 35 13 8 -10 111
-29 126 -3 3 -17 21 -29 40 -13 19 -40 49 -59 67 -37 33 -50 76 -29 99 47 53
48 64 6 64 -18 0 -45 11 -66 27 -26 20 -50 28 -93 31 -54 4 -60 2 -87 -26 -16
-17 -37 -55 -46 -85 -12 -38 -27 -62 -53 -83 -125 -100 -232 -275 -208 -337 3
-8 1 -18 -5 -22 -18 -11 -13 -37 7 -33 9 2 16 10 14 17 -1 7 5 11 15 9 9 -2
16 -7 16 -13 -1 -5 5 -17 13 -27 14 -14 11 -20 -28 -58 -24 -23 -62 -53 -86
-67 -23 -14 -40 -28 -37 -33 8 -13 53 -18 64 -7 8 8 11 8 11 0 0 -20 32 -24
46 -6 9 13 13 14 14 4 0 -7 6 -11 13 -8 8 3 20 1 28 -3 8 -6 16 -4 21 3 5 8 8
6 8 -5 0 -22 9 -22 35 -3 14 11 19 26 17 53 -2 35 -1 36 13 18 8 -11 15 -22
15 -26 0 -3 13 -11 29 -17 24 -8 31 -19 40 -59 6 -27 14 -60 17 -73 6 -20 4
-23 -9 -18 -22 8 -34 -13 -13 -25 27 -15 18 -24 -39 -38 -30 -7 -55 -17 -55
-23 0 -13 -46 0 -116 34 -33 16 -66 29 -72 29 -22 0 -102 49 -140 86 -22 22
-50 49 -63 61 -31 27 -90 144 -94 185 -1 10 -7 24 -14 31 -6 8 -8 17 -5 20 3
3 -3 18 -13 34 -11 16 -21 49 -22 77 -2 27 -5 58 -7 70 -11 47 -20 134 -18
187 1 54 7 71 65 195 10 23 22 55 25 72 3 17 14 39 24 50 10 11 27 37 38 58
27 54 115 132 192 173 36 19 72 39 80 45 34 25 90 48 104 43 9 -3 18 -2 21 4
4 5 10 7 14 5 4 -3 43 1 87 9 114 19 259 19 292 0z m-112 -1202 c-9 -51 -20
-79 -33 -90 -10 -8 -11 -13 -3 -18 18 -11 -36 -84 -63 -85 -4 0 -7 17 -7 38 0
20 -2 55 -5 77 -6 38 -5 41 29 59 19 10 42 16 51 12 9 -3 18 0 21 9 8 21 15
19 10 -2z m-33 -192 c-3 -12 -11 -17 -19 -14 -12 4 -11 8 3 19 10 7 19 14 20
14 0 0 -1 -9 -4 -19z m-63 -73 c11 -12 20 -25 20 -29 0 -10 -150 0 -170 11
-12 7 -12 9 5 9 39 1 95 13 101 22 9 14 22 11 44 -13z"/>
</g>
</svg>
